<svg width="1529" height="1148" viewBox="0 0 1529 1148" fill="none" xmlns="http://www.w3.org/2000/svg">
<g clip-path="url(#clip0_841_2)">
<path d="M1530 298.688C1530 582.604 1530 866.519 1530 1150.52C1020.45 1150.52 510.902 1150.52 1 1150.52C1 867.421 1 584.244 1.35693 300.169C7.325 330.331 12.398 362.147 18.6632 392.29C30.439 448.946 46.7645 496.737 65.2719 538.792C79.5467 571.23 95.6576 598.002 113.09 617.814C127.665 634.379 142.718 648.259 157.755 661.874C165.162 668.581 172.938 675.01 180.675 676.275C196.097 678.797 211.607 677.764 227.081 677.868C228.387 677.877 229.736 675.613 230.994 674.028C233.271 671.159 235.375 666.613 237.764 665.216C247.011 659.811 256.327 655.151 265.646 650.62C282.181 642.58 298.77 635.274 315.276 626.85C332.5 618.059 349.653 608.316 366.836 598.976C380.69 591.446 394.561 584.11 408.392 576.302C426.712 565.96 444.995 555.187 463.303 544.704C478.376 536.072 493.49 527.909 508.533 518.95C521.665 511.129 534.682 501.986 547.829 494.354C559.739 487.44 571.739 481.548 583.731 475.628C595.79 469.674 607.889 464.256 619.969 458.577C629.904 453.905 639.801 448.577 649.78 444.665C660.768 440.357 671.807 436.679 682.868 433.97C690.97 431.985 699.158 432.534 707.283 431.027C723.739 427.976 740.159 422.745 756.63 421.392C768.673 420.404 780.797 423.421 792.843 426.011C809.369 429.564 825.874 433.946 842.352 438.812C861.384 444.431 880.41 450.357 899.378 457.28C915.888 463.305 932.388 469.884 948.757 478.054C971.156 489.235 993.443 501.962 1015.75 514.386C1036.05 525.694 1056.34 537.141 1076.58 549.168C1092.56 558.667 1108.44 569.45 1124.41 579.081C1137.6 587.036 1150.86 594.216 1164.1 601.601C1180.36 610.668 1196.6 619.961 1212.9 628.465C1226.58 635.599 1240.3 642.117 1254.06 648.206C1265.84 653.426 1277.76 656.818 1289.49 662.666C1295.44 665.63 1302.2 663.093 1307.05 676.52C1307.66 678.191 1309.23 677.829 1310.36 677.84C1323.61 677.971 1336.86 678.031 1350.1 677.982C1351.38 677.978 1353.24 678.346 1353.83 676.449C1356.89 666.546 1361.17 666.755 1365.39 664.289C1385.81 652.357 1405.5 635.269 1424.35 610.878C1443.32 586.334 1460.11 554.379 1475.3 516.76C1483.01 497.663 1489.82 475.925 1496.51 454.287C1507.25 419.555 1516.28 381.917 1523 340.736C1525.29 326.675 1527.66 312.701 1530 298.688Z" fill="white"/>
</g>
<defs>
<clipPath id="clip0_841_2">
<rect width="1529" height="1148" fill="white"/>
</clipPath>
</defs>
</svg>
